<svg width="64" height="64" viewBox="0 0 64 64" fill="none" xmlns="http://www.w3.org/2000/svg">
<path fill-rule="evenodd" clip-rule="evenodd" d="M12 10H52C55.3137 10 58 12.6863 58 16V44C58 47.3137 55.3137 50 52 50H12C8.68629 50 6 47.3137 6 44V16C6 12.6863 8.68629 10 12 10ZM24 54H40C40.5304 54 41.0391 54.2107 41.4142 54.5857C41.7893 54.9608 42 55.4695 42 56C42 56.5304 41.7893 57.0391 41.4142 57.4142C41.0391 57.7892 40.5304 58 40 58H24C23.4696 58 22.9609 57.7892 22.5858 57.4142C22.2107 57.0391 22 56.5304 22 56C22 55.4695 22.2107 54.9608 22.5858 54.5857C22.9609 54.2107 23.4696 54 24 54Z" fill="white"/>
</svg>
