<svg width="64" height="64" viewBox="0 0 64 64" fill="none" xmlns="http://www.w3.org/2000/svg">
<path d="M57.0419 38.2391L52.2536 25.0835C51.8898 24.0873 51.1458 23.2761 50.1846 22.8278C49.2234 22.3796 48.1237 22.331 47.1267 22.6927L32.1411 28.147L34.9103 12.4419C35.0945 11.3972 34.8562 10.322 34.2477 9.45297C33.6392 8.58392 32.7104 7.99218 31.6657 7.80793L17.8786 5.37726C17.3612 5.28597 16.831 5.29749 16.3182 5.41113C15.8053 5.52478 15.3199 5.73834 14.8895 6.03961C14.4592 6.34089 14.0925 6.72398 13.8102 7.16701C13.528 7.61004 13.3357 8.10432 13.2445 8.62164L7.19777 42.9148C6.94332 44.3886 6.9834 45.8982 7.31568 47.3565C7.64796 48.8147 8.26585 50.1926 9.13368 51.4107C10.1332 52.8288 11.4589 53.9859 12.9992 54.7845C14.5394 55.5831 16.2491 55.9997 17.984 55.9993H17.9849C17.9899 55.9993 17.9948 56 17.9998 56H52.9998C54.0603 55.9988 55.077 55.577 55.8269 54.8271C56.5767 54.0772 56.9986 53.0605 56.9998 52V41.0694C57.3603 40.163 57.3753 39.1558 57.0419 38.2391ZM17.9998 48C17.4064 48 16.8264 47.8241 16.3331 47.4945C15.8397 47.1648 15.4552 46.6963 15.2281 46.1481C15.0011 45.5999 14.9417 44.9967 15.0574 44.4148C15.1732 43.8328 15.4589 43.2983 15.8784 42.8787C16.298 42.4592 16.8326 42.1734 17.4145 42.0577C17.9964 41.9419 18.5996 42.0013 19.1478 42.2284C19.696 42.4555 20.1645 42.84 20.4942 43.3333C20.8238 43.8267 20.9998 44.4067 20.9998 45C20.9989 45.7954 20.6825 46.558 20.1201 47.1204C19.5577 47.6828 18.7951 47.9992 17.9998 48ZM52.9998 52H30.9295L52.9998 43.9671V52ZM28.3629 48.6774C28.5689 48.1026 28.726 47.5114 28.8327 46.9102L31.339 32.6957L48.4948 26.4515L53.2831 39.6072L28.3629 48.6774Z" fill="white"/>
</svg>
