<svg width="30" height="48" viewBox="0 0 30 48" fill="none" xmlns="http://www.w3.org/2000/svg">
<path fill-rule="evenodd" clip-rule="evenodd" d="M27 33C27 39.6168 21.6168 45 15 45C8.3832 45 3 39.6168 3 33V15C3 8.3832 8.3832 3 15 3C21.6168 3 27 8.3832 27 15V33ZM0 33C0 41.2842 6.7158 48 15 48C23.2842 48 30 41.2842 30 33V15C30 6.7158 23.2842 0 15 0C6.7158 0 0 6.7158 0 15V33ZM15.0001 32.642C16.034 32.642 16.8717 33.4801 16.8717 34.5136C16.8717 35.5471 16.034 36.3853 15.0001 36.3853C13.9665 36.3853 13.1284 35.5471 13.1284 34.5136C13.1284 33.4801 13.9665 32.642 15.0001 32.642Z" fill="white"/>
</svg>
