<svg width="118" height="44" viewBox="0 0 118 44" fill="none" xmlns="http://www.w3.org/2000/svg">
<path fill-rule="evenodd" clip-rule="evenodd" d="M19.9378 1.01202C19.7227 0.988111 19.5036 0.988111 19.2831 0.988111C18.8422 0.988111 18.396 0.988111 17.9657 0.796875H17.8223C17.3741 0.868588 16.9169 0.877553 16.4597 0.886517C16.0026 0.895481 15.5454 0.904445 15.0972 0.976158C10.0414 1.83672 6.16888 4.49011 3.37206 8.79291C1.97365 10.9802 1.07723 13.3826 0.897949 15.9643V16.5021C0.91155 16.5384 0.923432 16.5741 0.933594 16.6093V17.1957C0.923432 17.2275 0.91155 17.2592 0.897949 17.2909V18.3666C0.91155 18.4029 0.923432 18.4403 0.933594 18.4786V19.187C0.923432 19.2252 0.91155 19.2627 0.897949 19.2989V19.8368C1.08529 19.9706 1.09285 20.1843 1.09954 20.3736C1.10182 20.4379 1.10399 20.4993 1.11309 20.5539C2.72664 29.6615 10.6151 35.6496 19.8303 34.7173C27.7546 33.9284 34.3164 27.1874 34.8542 19.2272C35.5355 10.0479 29.0813 2.15943 19.9378 1.01202ZM17.8223 31.0958C10.6151 31.0599 4.69876 25.0718 4.73461 17.8288C4.77047 10.5857 10.7585 4.63354 18.0374 4.6694C25.3522 4.74111 31.2327 10.6216 31.2327 17.9005C31.161 25.2511 25.2088 31.0958 17.8223 31.0958ZM95.5239 9.47419H99.0737C99.4146 9.47419 99.4877 9.66165 99.5707 9.87456C99.5837 9.90802 99.597 9.9421 99.6116 9.97619L99.6145 9.98405C101.263 14.3918 102.911 18.7995 104.56 23.1714C104.855 23.9905 105.164 24.8095 105.476 25.6319L105.476 25.6323C105.846 26.6101 106.217 27.5926 106.568 28.5858C106.695 28.5096 106.732 28.3974 106.768 28.2875L106.768 28.2874L106.768 28.2873C106.783 28.2421 106.798 28.1973 106.819 28.1555C107.93 25.1615 109.051 22.1764 110.171 19.1914C111.292 16.2063 112.412 13.2212 113.524 10.2272C113.739 9.61762 114.026 9.40248 114.671 9.43834C115.46 9.51005 116.249 9.51005 117.002 9.43834C117.576 9.40248 117.719 9.51005 117.504 10.1196C116.321 13.1674 115.173 16.2511 114.062 19.3348C113.045 22.0246 112.043 24.7144 111.042 27.4008L111.042 27.4017L111.042 27.4026L111.041 27.4036L111.041 27.4045L111.041 27.4054C109.854 30.5905 108.67 33.7707 107.464 36.9404C106.209 40.2034 103.95 42.2472 100.472 42.9285C99.5757 43.1078 98.6076 43.1078 97.6753 43.1078C97.3526 43.1078 97.245 42.9643 97.245 42.6775C97.245 42.3667 97.249 42.056 97.253 41.7452C97.261 41.1237 97.2689 40.5022 97.245 39.8807C97.245 39.5221 97.3885 39.4504 97.7112 39.4504C97.9 39.4504 98.0888 39.4549 98.277 39.4594C98.8395 39.4728 99.397 39.4861 99.9343 39.3787C102.157 39.0201 104.918 36.3308 104.058 32.9962C103.58 31.0837 102.885 29.2498 102.193 27.4219C101.95 26.7823 101.708 26.1434 101.476 25.5021C100.139 21.8433 98.7659 18.2023 97.395 14.5665L97.3948 14.5661L97.3947 14.5657L97.3946 14.5654L97.3945 14.5651L97.3938 14.5632C96.817 13.0336 96.2406 11.5049 95.6674 9.97619C95.6674 9.83276 95.6315 9.68933 95.5239 9.47419ZM67.0536 18.4742C65.8345 21.7013 64.6154 24.9284 63.3604 28.3348C63.2758 28.1232 63.1974 27.921 63.1215 27.7254C62.9403 27.258 62.7738 26.8283 62.5715 26.3985C60.5277 20.9483 58.4839 15.4981 56.4759 10.0479C56.2966 9.65348 56.0815 9.47419 55.6512 9.51005C55.0563 9.53385 54.493 9.52606 53.9193 9.51813C53.6286 9.51411 53.3352 9.51005 53.0337 9.51005C52.2448 9.51005 52.2448 9.51005 52.5317 10.2272C53.7508 13.526 54.9699 16.8248 56.2249 20.1236C56.6427 21.2406 57.0625 22.3595 57.4829 23.48L57.4841 23.4833C58.8313 27.074 60.1844 30.6805 61.4958 34.287C61.6751 34.7532 61.8544 34.9324 62.3564 34.8966C63.0377 34.8249 63.6831 34.8607 64.3285 34.8966H64.3285C64.7588 34.8966 64.9022 34.7173 65.0457 34.3587C65.635 32.7086 66.2486 31.1068 66.8664 29.4938C67.0004 29.1441 67.1346 28.7938 67.2688 28.4424C67.6541 27.4067 68.0385 26.3731 68.4223 25.3408L68.4316 25.3158L68.4339 25.3096L68.4375 25.2999C70.3344 20.1987 72.2191 15.1301 74.1533 10.012C74.2967 9.58176 74.225 9.43834 73.7588 9.47419C72.8266 9.51005 71.8943 9.54591 70.962 9.47419C70.4959 9.43834 70.3166 9.61762 70.1732 10.0479C69.1333 12.8806 68.0935 15.6774 67.0536 18.4742ZM38.5834 26.5061C38.5834 25.6575 38.5754 24.8089 38.5674 23.9603V23.96C38.5515 22.2629 38.5356 20.5658 38.5834 18.8686C38.691 14.2431 41.9898 10.4065 46.5436 9.58176C47.0324 9.49549 47.5213 9.50147 47.9916 9.50722H47.9917H47.9918H47.9919C48.108 9.50864 48.2229 9.51005 48.3364 9.51005C48.6233 9.51005 48.7308 9.65347 48.7308 9.94033V12.8089C48.7308 13.1674 48.5515 13.2391 48.2288 13.2391C44.4997 13.4543 42.3125 15.785 42.3125 19.5858C42.2766 24.4264 42.2766 29.2671 42.3125 34.1077C42.3125 34.6814 42.2049 34.9324 41.5236 34.8966C40.7348 34.8249 39.9101 34.8249 39.0854 34.8966C38.5834 34.9324 38.4758 34.7532 38.5117 34.287C38.5296 32.9961 38.5386 31.6962 38.5475 30.3964C38.5565 29.0966 38.5655 27.7969 38.5834 26.5061ZM21.8381 38.4105C19.6508 37.5141 17.4636 36.7253 15.5273 36.7253C13.3042 36.6894 11.6189 37.0838 10.1488 37.9803C10.0054 38.052 9.75439 38.2671 9.75439 38.303C10.0054 38.6615 10.2564 39.0201 10.5432 39.3069C10.7027 39.4664 10.8227 39.3895 10.9472 39.3098C10.9906 39.282 11.0347 39.2538 11.0811 39.2352C12.4436 38.6257 13.8779 38.3388 15.3839 38.6974C16.2445 38.9125 17.0692 39.2711 17.858 39.7014C18.0924 39.8322 18.3251 39.963 18.5569 40.0933L18.5591 40.0945L18.5592 40.0946C19.8516 40.8211 21.116 41.5319 22.4835 42.1396C27.5035 44.3269 32.2365 41.8169 34.1369 38.7332L34.1656 38.6877C34.4463 38.2422 34.588 38.0172 34.5599 37.816C34.5312 37.6109 34.3259 37.4304 33.9112 37.0659L33.8501 37.0121C33.4915 36.7253 33.3481 36.6536 33.0612 37.0838C31.4477 39.3428 29.2246 40.3109 26.4278 39.8807C24.9653 39.6857 23.6206 39.1372 22.2603 38.5823C22.1198 38.525 21.9791 38.4676 21.8381 38.4105ZM92.8257 28.6845C93.2013 28.9846 93.5706 29.2797 93.9819 29.5539C94.3046 29.7691 94.3046 29.9125 94.1612 30.1635C90.5397 36.1874 81.4679 36.4743 77.1293 30.3786C73.1492 24.785 73.9022 16.5021 78.8504 11.9483C82.3285 8.79291 87.9939 8.54192 91.4003 11.3387C94.4122 13.8487 94.3764 18.3308 91.3285 20.8049C89.5357 22.2392 87.456 22.8129 85.2329 22.9563C84.5383 23.0042 83.8597 22.9881 83.1864 22.9721C82.8518 22.9642 82.5184 22.9563 82.1851 22.9563V22.9922C81.8265 22.9922 81.4679 22.9961 81.1094 23.0001C80.3923 23.0081 79.6751 23.0161 78.958 22.9922C78.456 22.9922 78.2767 23.2073 78.3484 23.6376C78.8146 26.4344 79.962 28.7651 82.4719 30.3069C84.5875 31.6336 88.8186 31.3468 90.5397 28.6934C91.2927 27.546 91.3644 27.5818 92.476 28.4065C92.5941 28.4993 92.7102 28.5921 92.8257 28.6845ZM89.8584 15.9284C89.7508 14.5658 88.711 13.9204 87.5277 13.526C83.6552 12.271 79.3524 15.0678 78.707 19.3348C79.5541 19.3219 80.392 19.3321 81.2256 19.3422C82.721 19.3603 84.2026 19.3782 85.699 19.2631C86.452 19.1555 87.2409 18.9762 87.9221 18.6176C88.9979 18.0439 89.966 17.2909 89.8584 15.9284Z" fill="white"/>
</svg>
