<svg width="169" height="42" viewBox="0 0 169 42" fill="none" xmlns="http://www.w3.org/2000/svg">
<path fill-rule="evenodd" clip-rule="evenodd" d="M18.1244 12.1844C18.0886 12.1544 18.0474 12.1198 18.0763 12.0619C19.0445 9.22926 27.2198 3.27705 27.2198 3.27705C23.2756 3.63562 17.3233 8.90655 16.2476 9.87468C16.1759 9.94639 16.0684 9.87468 16.0684 9.80297C16.1759 -2.81858 32.9569 0.516087 32.9569 0.516087C32.9569 0.516087 33.2079 0.0858072 29.7656 6.54001C26.5744 12.4922 19.2237 12.2771 18.148 12.2054C18.1411 12.1985 18.1329 12.1916 18.1244 12.1844ZM19.8332 20.811C19.9049 20.9185 20.0483 20.8468 20.0483 20.7393C20.0124 19.054 18.4347 17.4046 18.4347 17.4046C14.2395 13.3886 10.116 13.9982 10.116 13.9982C1.97653 15.3966 0.936682 23.1775 0.936682 23.1775C-0.641012 36.2293 11.5503 41.6078 18.8292 41.6437C26.1439 41.6437 34.1041 36.2652 35.2515 27.6237C36.3989 18.9106 30.2316 13.8189 24.5662 12.9942C20.2634 12.3846 18.7216 13.1735 18.2196 13.6038C18.112 13.6755 18.1479 13.8189 18.2913 13.8548C29.8372 15.2173 30.9129 21.4564 30.9129 21.4564C30.9129 21.4564 33.3153 36.5521 18.6857 35.9425C4.05621 35.3329 5.27534 23.6436 5.27534 23.6436C5.27534 23.6436 5.66977 17.4404 11.0483 16.795C15.6738 16.2213 18.9726 19.7711 19.8332 20.811ZM47.0125 19.807C46.905 19.6636 46.6898 19.556 46.3671 19.4484C46.0444 19.3408 45.7217 19.2691 45.399 19.2691C44.8611 19.2691 44.395 19.3767 43.9647 19.6277C43.5703 19.8428 43.1759 20.2014 42.889 20.5958C42.6022 20.9903 42.3512 21.4922 42.2077 22.0301C42.0643 22.5679 41.9926 23.1775 41.9926 23.8229V27.4445C41.9926 28.4126 41.9926 29.2731 42.0285 29.9186C42.0285 30.2979 42.0396 30.6438 42.0494 30.9503V30.9504V30.9506V30.9507V30.9508V30.9509V30.951C42.0573 31.1946 42.0643 31.4133 42.0643 31.6038C42.0643 32.07 42.1002 32.4644 42.136 32.8588C41.634 32.7512 41.2038 32.6795 40.8093 32.6795C40.5942 32.6795 40.3432 32.7154 40.1281 32.7512C40.0204 32.7692 39.9039 32.7871 39.7873 32.805C39.6708 32.823 39.5543 32.8409 39.4468 32.8588C39.5185 32.0341 39.5543 30.9943 39.5543 29.7034C39.5543 29.1174 39.5617 28.4723 39.5698 27.768L39.5698 27.7672V27.767V27.7667V27.7665V27.7663V27.766V27.7656V27.7653C39.5795 26.919 39.5902 25.9873 39.5902 24.9703V23.8946C39.5902 23.0341 39.5902 22.0301 39.5543 20.8827C39.5543 20.1883 39.5264 19.4101 39.4966 18.5828L39.4966 18.5825L39.4966 18.5821L39.4966 18.5816C39.4787 18.0849 39.4602 17.5705 39.4468 17.046C39.5879 17.0931 39.7444 17.1092 39.8962 17.1249C39.9758 17.1332 40.054 17.1413 40.1281 17.1536C40.3432 17.1894 40.5942 17.2253 40.8093 17.2253C41.2038 17.2253 41.634 17.1536 42.136 17.046C42.1211 17.2107 42.1061 17.3691 42.0918 17.5206L42.0918 17.5207C42.0375 18.095 41.9926 18.5701 41.9926 18.9106C41.9926 19.1257 41.9836 19.3498 41.9747 19.5739C41.9657 19.798 41.9567 20.0221 41.9567 20.2373L42.0285 20.309C42.6739 19.1257 43.3552 18.2293 44.1081 17.6197C44.8611 17.0102 45.6141 16.7233 46.403 16.7233C46.6181 16.7233 46.7615 16.7233 46.9408 16.7592L46.9946 16.7723C47.1283 16.8048 47.2896 16.8439 47.4787 16.9384C47.3711 17.1894 47.2994 17.6197 47.2635 18.1576C47.2277 18.6954 47.2277 19.1973 47.2277 19.6276V19.6277L47.0125 19.807ZM54.0405 17.1536C53.18 17.4404 52.2477 17.9424 51.2795 18.6954H51.2437V20.3807H51.6381C52.0325 19.6994 52.6062 19.1257 53.3592 18.7313C54.1122 18.3369 54.9369 18.1217 55.8333 18.1217C56.5146 18.1217 57.0525 18.2651 57.5186 18.4803C57.9489 18.6954 58.3433 19.0181 58.6302 19.3767C58.917 19.7353 59.1322 20.1655 59.2756 20.7034C59.419 21.2054 59.4907 21.7432 59.4907 22.2811C59.4907 22.6038 59.4907 22.8906 59.419 23.1058C59.3832 23.2851 59.168 23.5002 58.8453 23.6436C58.5226 23.7871 58.0565 23.9305 57.3752 24.0739C56.8686 24.2072 56.2231 24.3207 55.4389 24.4586C55.1686 24.5062 54.8817 24.5566 54.5784 24.6118C53.1441 24.8269 51.9967 25.3289 51.172 26.046C50.3114 26.799 49.917 27.803 49.917 29.1297C49.917 29.7751 50.0246 30.3488 50.2756 30.8508C50.4907 31.3528 50.8493 31.7831 51.2437 32.1417C51.674 32.5002 52.1401 32.7871 52.678 32.9664C53.18 33.1815 53.7537 33.2532 54.2915 33.2532C55.4031 33.2532 56.3353 33.0381 57.1242 32.6437C57.8772 32.2492 58.666 31.6397 59.4549 30.8508C59.5266 31.4245 59.7776 31.8907 60.1361 32.2851C60.4947 32.6795 61.0684 32.8947 61.7855 32.8947C62.2158 32.8947 62.6461 32.823 63.0047 32.7512C63.3632 32.6437 63.686 32.5361 63.9011 32.4285V31.7114C63.8422 31.7261 63.7894 31.7469 63.7401 31.7662C63.6693 31.794 63.6059 31.819 63.5425 31.819C63.3991 31.8548 63.2915 31.8548 63.184 31.8548C62.8254 31.8548 62.6103 31.7831 62.431 31.6397C62.2875 31.4963 62.1441 31.317 62.0724 31.066C62.0007 30.815 61.929 30.5281 61.929 30.2413C61.8931 29.9544 61.8931 29.6676 61.8931 29.4166V29.4163C61.8931 28.018 61.8931 26.6914 61.9648 25.4365L61.9677 25.3371C62.0026 24.117 62.0366 22.9283 62.0366 21.6715C62.0366 20.9544 61.8931 20.2731 61.6421 19.6635C61.3553 19.054 60.9967 18.5161 60.5306 18.0859C60.0286 17.6556 59.4907 17.3329 58.8095 17.1177C58.164 16.8667 57.4469 16.7592 56.6222 16.7592C55.7616 16.7592 54.8652 16.9026 54.0405 17.1536ZM57.411 25.0779C58.1999 24.9703 58.8812 24.8269 59.4549 24.6118L59.3473 29.6676C58.9887 30.2771 58.4867 30.815 57.7696 31.2811C57.0525 31.7473 56.2995 31.9624 55.4748 31.9624C54.7218 31.9624 54.0764 31.6755 53.4668 31.1377C52.8572 30.5998 52.5704 29.811 52.5704 28.7711C52.5704 27.8389 52.7855 27.1576 53.3234 26.6915C53.8254 26.2253 54.4349 25.8309 55.1521 25.6158C55.8333 25.3648 56.6222 25.1855 57.411 25.0779ZM77.4188 19.807C76.7375 18.9464 75.877 18.5161 74.8013 18.5161C73.2595 18.5161 72.1479 18.9823 71.4308 19.9504C70.7136 20.9185 70.355 22.2452 70.355 23.9305V26.7273C70.355 27.6325 70.3864 28.6005 70.4198 29.6311L70.4268 29.8468C70.4626 30.9584 70.5343 31.9624 70.6419 32.9305C70.1041 32.823 69.6021 32.7512 69.1718 32.7512C68.7415 32.7512 68.2395 32.823 67.7017 32.9305C67.8092 31.9624 67.8809 30.9584 67.9168 29.8468L67.9238 29.6317C67.9572 28.6009 67.9885 27.6327 67.9885 26.7273V23.3209C67.9885 22.4155 67.9572 21.4474 67.9238 20.4165L67.9168 20.2014C67.8809 19.0898 67.8092 18.0859 67.7017 17.1177C68.2395 17.2253 68.7415 17.297 69.1718 17.297C69.4945 17.297 69.9606 17.2253 70.4985 17.1177C70.4268 18.0141 70.4268 18.9106 70.4268 19.7711H70.4985C71.1081 18.803 71.861 18.0859 72.7216 17.5839C73.5822 17.046 74.5861 16.795 75.8053 16.795C76.4148 16.795 77.0603 16.8667 77.6698 17.046C78.3152 17.2253 78.8531 17.548 79.3909 17.9424C79.9288 18.3727 80.3232 18.9464 80.6459 19.6994C80.9686 20.4524 81.1479 21.3847 81.1479 22.5321C81.1479 23.467 81.1145 24.4019 81.0799 25.369L81.0762 25.4723C81.0045 26.4763 81.0045 27.5162 81.0045 28.6636V30.815C81.0045 31.5321 81.0404 32.2492 81.0762 32.9305C80.9351 32.8835 80.7786 32.8673 80.6268 32.8516C80.5472 32.8434 80.4689 32.8353 80.3949 32.823C80.1798 32.7871 79.9288 32.7512 79.7136 32.7512C79.4985 32.7512 79.2475 32.7871 79.0324 32.823L79.0322 32.823C78.8171 32.8588 78.602 32.8947 78.3511 32.9305C78.387 32.3209 78.4049 31.7113 78.4228 31.1017C78.4407 30.4922 78.4587 29.8827 78.4945 29.2731C78.5662 28.054 78.5662 26.799 78.5662 25.544V23.5361C78.387 21.8867 78.0642 20.6675 77.4188 19.807ZM86.0603 19.7711C85.7376 20.4524 85.5584 21.2412 85.5584 22.1735C85.5584 23.3926 85.8452 24.3966 86.4189 25.293C86.9568 26.0819 87.7815 26.7273 88.7855 27.1576V27.2293C88.4986 27.2652 88.2476 27.3727 87.9607 27.5162C87.6739 27.6954 87.4229 27.9106 87.2078 28.1257C86.9926 28.3409 86.8133 28.6277 86.6699 28.9504C86.5265 29.2731 86.4548 29.5959 86.4548 29.9544C86.4548 30.5998 86.6341 31.1735 86.9926 31.6038C87.3512 32.0341 87.889 32.3568 88.5703 32.572V32.6437C88.1042 32.7871 87.6739 32.9664 87.2795 33.2174C86.8492 33.4684 86.4906 33.7911 86.1679 34.1497C85.8452 34.5082 85.5584 34.9385 85.3432 35.4046C85.1281 35.8708 85.0205 36.3728 85.0205 36.9823C85.0205 38.4883 85.6659 39.6357 86.885 40.4963C88.1042 41.3568 89.7894 41.7871 91.9408 41.7871C93.3393 41.7871 94.5584 41.5361 95.5265 41.1417C96.5305 40.7114 97.3193 40.2094 97.9648 39.564C98.6102 38.9186 99.0763 38.2015 99.3632 37.4126C99.65 36.6596 99.7935 35.8708 99.7935 35.0819C99.7935 34.4724 99.6859 33.9345 99.4707 33.4325C99.2915 32.9305 98.9688 32.4644 98.5026 32.1058C98.0365 31.7473 97.4986 31.4245 96.7456 31.2094C95.9926 30.9943 95.1321 30.8867 94.1281 30.8508C93.5185 30.815 92.909 30.7791 92.2994 30.7791C91.9946 30.7612 91.6898 30.7522 91.3851 30.7433C91.0803 30.7343 90.7755 30.7253 90.4707 30.7074C89.7177 30.6716 89.2157 30.5281 88.9289 30.2771C88.6779 29.9903 88.5345 29.5959 88.5345 29.0221C88.5345 28.5919 88.7137 28.1974 89.0723 27.9106C89.395 27.6237 89.7894 27.4803 90.1839 27.4803C90.4707 27.4803 90.7934 27.4803 91.0803 27.5162C91.3671 27.552 91.654 27.552 91.9767 27.552C93.8412 27.552 95.3472 27.05 96.4588 26.1178C97.6062 25.1855 98.144 23.8946 98.144 22.2452C98.144 21.3847 97.8931 20.5958 97.4986 19.807C97.1042 19.054 96.5305 18.4444 95.8492 18.0859L95.9209 18.0141C96.1169 18.0264 96.3171 18.0345 96.5201 18.0426L96.5203 18.0426L96.5205 18.0426L96.5208 18.0427L96.521 18.0427L96.5211 18.0427C96.9118 18.0584 97.3128 18.0745 97.7138 18.1217C98.0086 18.1586 98.3223 18.1765 98.6453 18.1949C98.9508 18.2124 99.2646 18.2303 99.5783 18.2651L99.5669 18.2205L99.5562 18.1797C99.5291 18.0768 99.5066 17.9917 99.5066 17.9066C99.4707 17.7631 99.4707 17.6556 99.4707 17.548C99.4707 17.4711 99.481 17.4046 99.4906 17.3428C99.4989 17.2893 99.5066 17.2394 99.5066 17.1894C99.5231 17.1237 99.532 17.0654 99.5402 17.0113C99.55 16.9473 99.5589 16.8891 99.5783 16.8309C99.0763 16.9384 98.1799 17.0102 96.8891 17.0102C96.6381 17.0102 96.3154 17.0102 95.9209 16.9743C95.5265 16.9743 95.0962 16.9743 94.5584 16.9026C93.9488 16.9026 93.4468 16.8667 93.0883 16.8309C92.6938 16.795 92.2635 16.795 91.8691 16.795C91.0086 16.795 90.1839 16.9026 89.4309 17.1177C88.6779 17.297 87.9966 17.6556 87.4229 18.0859C86.8492 18.5161 86.3831 19.0898 86.0603 19.7711ZM96.1002 33.6477C96.8891 34.2214 97.2835 35.1536 97.2835 36.4445C97.2835 37.1975 97.1401 37.807 96.7456 38.3807C96.4229 38.8827 96.0285 39.3489 95.5265 39.7074C95.0245 40.066 94.4508 40.317 93.8054 40.4963C93.16 40.6756 92.5504 40.7473 91.8691 40.7473C91.2237 40.7473 90.5783 40.6756 89.9687 40.5321C89.395 40.3887 88.8572 40.1377 88.4269 39.815C88.0325 39.4923 87.6739 39.062 87.4229 38.5242C87.1719 38.0222 87.0643 37.3768 87.0643 36.6238C87.0643 35.2254 87.4946 34.2214 88.4269 33.6477C89.3592 33.074 90.65 32.7871 92.2635 32.7871C94.0564 32.7871 95.3114 33.074 96.1002 33.6477ZM94.5225 18.8747C95.1679 19.5918 95.4907 20.6675 95.4907 22.0301C95.4907 22.6397 95.4548 23.2134 95.3114 23.8588C95.1679 24.3966 94.9169 24.9345 94.6301 25.3289C94.3432 25.7233 93.9847 26.0819 93.5185 26.3329C93.0524 26.5839 92.5145 26.6915 91.905 26.6915C90.65 26.6915 89.6819 26.297 89.0723 25.4723C88.4627 24.6835 88.1759 23.5719 88.1759 22.2094C88.1759 20.8468 88.4627 19.807 89.144 18.9823C89.7894 18.1576 90.7217 17.7631 91.905 17.7631C92.9807 17.7631 93.8413 18.1217 94.5225 18.8747ZM101.909 25.5082C101.909 22.8189 102.555 20.7034 103.845 19.1257C105.136 17.548 107.037 16.795 109.475 16.795C110.622 16.795 111.626 16.9743 112.487 17.3329C113.347 17.6914 114.065 18.1576 114.638 18.7671C115.212 19.3767 115.606 20.0938 115.929 20.9185C116.216 21.7432 116.324 22.6038 116.324 23.5361C116.324 23.7512 116.324 23.9664 116.288 24.1815C116.288 24.3966 116.252 24.6118 116.216 24.8269L116.216 24.8269C115.033 24.7911 113.849 24.7552 112.702 24.7552C111.555 24.7193 110.371 24.7193 109.188 24.7193C108.471 24.7193 107.754 24.7193 107.001 24.7552L106.82 24.7638L106.82 24.7639C106.138 24.7966 105.506 24.8269 104.814 24.8269C104.778 25.0062 104.778 25.1855 104.778 25.3289V25.7592C104.778 26.6197 104.885 27.4445 105.136 28.1616C105.387 28.9146 105.782 29.56 106.248 30.0978C106.75 30.6357 107.324 31.066 108.041 31.3887C108.722 31.7114 109.583 31.8907 110.515 31.8907C110.945 31.8907 111.411 31.819 111.877 31.7114C112.343 31.6038 112.81 31.4245 113.24 31.2094C113.67 30.9943 114.1 30.7433 114.495 30.4564C114.853 30.1696 115.212 29.8468 115.499 29.5241L115.678 29.5959L115.463 31.2094C114.782 31.7473 113.993 32.2134 112.989 32.6437C111.985 33.0381 110.981 33.2532 109.941 33.2532C108.758 33.2532 107.646 33.0381 106.678 32.6437C105.71 32.2492 104.849 31.6755 104.132 30.9943C103.415 30.313 102.841 29.4883 102.483 28.5202C102.124 27.5879 101.909 26.5839 101.909 25.5082ZM109.547 17.8349C108.722 17.8349 108.041 18.0141 107.503 18.3727C106.965 18.7313 106.499 19.1974 106.104 19.807C105.746 20.3448 105.459 20.9902 105.28 21.6715C105.1 22.3528 104.993 22.9624 104.921 23.5719C105.602 23.6078 106.32 23.6436 107.073 23.6436C107.826 23.6795 108.543 23.6795 109.26 23.6795H109.26H109.26C109.977 23.6795 110.73 23.6795 111.483 23.6436L111.586 23.6387L111.586 23.6387C112.301 23.6046 112.986 23.5719 113.67 23.5719C113.67 22.9946 113.606 22.4173 113.538 21.8095L113.527 21.7074C113.455 21.0261 113.24 20.4165 112.917 19.8428C112.63 19.2691 112.2 18.803 111.662 18.4086C111.124 18.0141 110.443 17.8349 109.547 17.8349ZM131.563 21.6357C131.598 22.1377 131.598 22.6397 131.598 23.1058H131.634V23.4285H131.061H130.487C130.24 23.4285 129.985 23.4372 129.725 23.446C129.456 23.4551 129.183 23.4644 128.909 23.4644H127.296H125.682C125.144 23.4644 124.642 23.4644 124.104 23.4285H123.495H122.921V23.1058C122.921 22.6397 122.921 22.1735 122.957 21.6357C122.975 21.3805 122.984 21.1161 122.993 20.8471C123.002 20.5869 123.011 20.3224 123.029 20.058C123.029 19.5519 123.06 19.0775 123.094 18.5752L123.094 18.5749L123.1 18.4803C123.1 17.9783 123.136 17.4763 123.172 17.0102C122.882 17.0628 122.631 17.0962 122.419 17.1243L122.316 17.1381C122.277 17.1433 122.24 17.1485 122.204 17.1536C122.119 17.1642 122.043 17.1749 121.974 17.1846C121.811 17.2076 121.685 17.2253 121.559 17.2253C121.379 17.2253 121.128 17.1894 120.877 17.1536L120.77 17.1403C120.51 17.1084 120.224 17.073 119.909 17.0102C119.909 17.4207 119.937 17.8312 119.968 18.2907L119.981 18.4803C119.999 18.7351 120.008 18.9992 120.017 19.2679L120.017 19.2684L120.017 19.2689C120.026 19.5291 120.035 19.7935 120.053 20.058C120.071 20.3132 120.08 20.5776 120.089 20.8466C120.098 21.1068 120.107 21.3712 120.124 21.6357C120.16 22.1377 120.16 22.6397 120.16 23.1058V26.799C120.16 27.2652 120.16 27.7313 120.124 28.2692C120.106 28.5243 120.097 28.7888 120.088 29.0578C120.079 29.318 120.07 29.5824 120.053 29.8469C120.053 30.353 120.021 30.8273 119.987 31.3297L119.987 31.3299L119.981 31.4245C119.963 31.6711 119.954 31.9176 119.946 32.1598C119.936 32.4109 119.927 32.6574 119.909 32.8947C120.199 32.842 120.45 32.8087 120.662 32.7805C120.739 32.7703 120.811 32.7608 120.877 32.7512C120.945 32.7428 121.008 32.7344 121.068 32.7265C121.263 32.7005 121.421 32.6795 121.559 32.6795C121.702 32.6795 121.953 32.7154 122.204 32.7512L122.311 32.7645C122.571 32.7965 122.858 32.8318 123.172 32.8947C123.172 32.4844 123.144 32.0741 123.113 31.6149V31.6148V31.6146L123.1 31.4245C123.082 31.1697 123.073 30.9056 123.064 30.6369L123.064 30.6364L123.064 30.6359C123.055 30.3757 123.046 30.1113 123.029 29.8469C123.011 29.5919 123.002 29.3278 122.992 29.0591L122.992 29.0586L122.992 29.0581L122.992 29.0575C122.984 28.7976 122.975 28.5334 122.957 28.2692C122.921 27.7672 122.921 27.2652 122.921 26.799V25.2572H124.033H125.073H126.112H127.224H129.411C130.164 25.2572 130.881 25.2572 131.598 25.2931V26.8349C131.598 27.301 131.598 27.7672 131.563 28.305C131.544 28.5602 131.535 28.8248 131.526 29.0938V29.0944C131.517 29.3544 131.508 29.6185 131.491 29.8827C131.491 30.3888 131.459 30.8632 131.426 31.3655L131.419 31.4604C131.402 31.7064 131.393 31.9525 131.384 32.1943L131.384 32.1957V32.1959V32.196C131.375 32.447 131.366 32.6934 131.347 32.9305C131.637 32.8779 131.888 32.8445 132.1 32.8163L132.101 32.8163L132.103 32.816C132.179 32.8059 132.25 32.7965 132.316 32.7871C132.401 32.7765 132.476 32.7658 132.545 32.7561C132.709 32.7331 132.835 32.7154 132.961 32.7154C133.14 32.7154 133.391 32.7512 133.642 32.7871L133.642 32.7871L133.75 32.8004C134.009 32.8323 134.296 32.8676 134.61 32.9305C134.61 32.52 134.583 32.1095 134.551 31.65L134.539 31.4604C134.52 31.2052 134.512 30.9408 134.502 30.6718C134.494 30.4116 134.485 30.1472 134.467 29.8827C134.449 29.6317 134.44 29.3628 134.431 29.0939C134.422 28.8249 134.413 28.556 134.395 28.305C134.359 27.803 134.359 27.301 134.359 26.8349V23.1058C134.359 22.6397 134.359 22.1377 134.395 21.6357C134.414 21.3805 134.422 21.116 134.432 20.847C134.44 20.5869 134.449 20.3224 134.467 20.058C134.467 19.5517 134.499 19.0772 134.532 18.5746L134.539 18.4803C134.539 17.9783 134.575 17.4763 134.61 17.0102C134.321 17.0628 134.07 17.0962 133.857 17.1243L133.857 17.1244C133.781 17.1346 133.709 17.1441 133.642 17.1536C133.575 17.162 133.512 17.1704 133.452 17.1783C133.257 17.2043 133.098 17.2253 132.961 17.2253C132.818 17.2253 132.567 17.1894 132.316 17.1536L132.208 17.1403C131.949 17.1084 131.662 17.073 131.347 17.0102C131.347 17.4207 131.375 17.8312 131.406 18.2907L131.419 18.4803C131.437 18.7355 131.446 18.9999 131.455 19.2689C131.464 19.5291 131.473 19.7935 131.491 20.058C131.509 20.3131 131.518 20.5775 131.527 20.8464V20.8471C131.536 21.1071 131.545 21.3714 131.563 21.6357ZM136.951 20.3709V20.3705L136.941 20.058L136.931 19.7549C136.899 18.7626 136.869 17.8537 136.869 16.9743C137.264 17.0102 137.766 17.046 138.303 17.0819L138.428 17.0902C138.918 17.1231 139.374 17.1536 139.738 17.1536H140.347C140.455 17.1536 140.553 17.1446 140.652 17.1357C140.751 17.1267 140.849 17.1177 140.957 17.1177C141.064 17.0998 141.172 17.0908 141.28 17.0819C141.387 17.0729 141.495 17.0639 141.602 17.046C141.817 17.0102 141.997 17.0102 142.248 17.0102C142.929 17.0102 143.538 17.0819 144.148 17.2253C144.758 17.3329 145.26 17.5839 145.726 17.9066C146.192 18.2293 146.55 18.5879 146.801 19.0898C147.052 19.5918 147.196 20.2014 147.196 20.9185C147.196 21.564 147.088 22.1377 146.837 22.6397C146.586 23.1417 146.264 23.5719 145.869 23.9305C145.475 24.2891 145.044 24.6118 144.542 24.8269C144.04 25.0421 143.61 25.2213 143.18 25.3648C143.287 25.544 143.431 25.7232 143.574 25.9024L143.574 25.9026C143.718 26.0819 143.861 26.2612 144.04 26.5122C144.268 26.8312 144.54 27.1646 144.845 27.5402C145.02 27.7556 145.207 27.9849 145.403 28.2333C145.672 28.5555 145.931 28.8778 146.191 29.2L146.192 29.2017C146.452 29.5243 146.712 29.8469 146.981 30.1696C147.228 30.4662 147.46 30.7552 147.68 31.0297L147.681 31.0303C147.94 31.3529 148.183 31.6554 148.415 31.9265C148.558 32.1051 148.677 32.256 148.779 32.3871C148.853 31.9565 148.919 31.5296 148.989 31.0886C149.084 30.4784 149.184 29.8412 149.312 29.1297C149.419 28.4125 149.536 27.7042 149.652 26.9959C149.769 26.2878 149.885 25.5798 149.993 24.8628L149.993 24.8606C150.208 23.4271 150.423 21.9935 150.603 20.5958C150.688 19.9315 150.773 19.2996 150.854 18.6962C150.944 18.0294 151.029 17.3974 151.105 16.795L152.144 16.8667C152.409 17.3598 152.664 17.8528 152.915 18.3373C153.175 18.8395 153.431 19.3325 153.686 19.807L153.687 19.8078C154.189 20.7398 154.69 21.6718 155.228 22.5679C155.438 22.9318 155.642 23.2957 155.846 23.6574C156.163 24.2225 156.478 24.7824 156.806 25.3289C157.344 26.2253 157.917 27.2293 158.491 28.2692C158.541 28.1813 158.594 28.0902 158.648 27.9957C158.904 27.5495 159.205 27.0259 159.531 26.4046C159.687 26.1306 159.849 25.8519 160.015 25.565C160.305 25.0633 160.61 24.5366 160.929 23.9664C161.288 23.3926 161.611 22.8189 161.969 22.1735C162.328 21.5281 162.686 20.8827 163.081 20.309C163.287 19.9384 163.492 19.5797 163.691 19.2328C163.839 18.9754 163.983 18.7246 164.121 18.4803C164.247 18.2647 164.365 18.0581 164.479 17.8588C164.686 17.4947 164.88 17.1553 165.089 16.8309H166.093C166.236 17.799 166.344 18.8388 166.451 19.8787C166.559 20.9185 166.666 21.8867 166.774 22.8189C166.855 23.4569 166.932 24.0949 167.009 24.7388C167.135 25.7956 167.263 26.8682 167.419 27.9823C167.574 29.2473 167.748 30.4937 167.913 31.6813C167.977 32.1432 168.04 32.5963 168.101 33.0381C167.786 32.9752 167.499 32.9399 167.24 32.908C167.204 32.9035 167.168 32.8991 167.132 32.8947C167.083 32.8885 167.035 32.8824 166.988 32.8764C166.763 32.8476 166.57 32.823 166.451 32.823C166.325 32.823 166.199 32.8407 166.036 32.8637C165.967 32.8734 165.891 32.884 165.806 32.8947C165.771 32.8997 165.735 32.9047 165.698 32.9098C165.474 32.9413 165.223 32.9764 164.945 33.0381C164.919 32.6788 164.887 32.3293 164.856 31.9861C164.804 31.4046 164.753 30.8408 164.73 30.2771C164.658 29.4166 164.587 28.5919 164.515 27.7672C164.479 27.3547 164.434 26.9423 164.389 26.5298C164.345 26.1176 164.3 25.7053 164.264 25.293C164.198 24.5375 164.072 23.7217 163.941 22.8734C163.935 22.8308 163.928 22.7881 163.922 22.7454C162.961 24.4188 162.035 26.0571 161.109 27.6954C160.176 29.3449 159.28 31.066 158.491 32.8588H157.666L157.56 32.6528C156.982 31.5303 156.372 30.3459 155.73 29.1297C155.261 28.2414 154.775 27.3531 154.296 26.4764C154.079 26.0792 153.863 25.6844 153.65 25.293C153.63 25.2562 153.61 25.2202 153.59 25.1852C153.439 24.9139 153.319 24.6988 153.256 24.5401C153.22 24.4504 153.175 24.3608 153.13 24.2711C153.086 24.1815 153.041 24.0919 153.005 24.0022C152.964 23.8989 152.91 23.8075 152.852 23.7075C152.809 23.6339 152.764 23.5556 152.718 23.4644C152.611 23.2851 152.467 23.0341 152.288 22.7114C152.246 23.218 152.179 23.7247 152.109 24.2534C152.06 24.6226 152.009 25.0025 151.965 25.4006C151.858 26.3329 151.75 27.2652 151.642 28.1616C151.617 28.4805 151.587 28.7994 151.557 29.1151C151.503 29.6868 151.45 30.2478 151.427 30.7791C151.356 31.6038 151.356 32.3568 151.356 33.0022C151.115 32.9422 150.9 32.9073 150.71 32.8764C150.673 32.8705 150.637 32.8646 150.603 32.8588C150.566 32.8527 150.53 32.8465 150.495 32.8405C150.327 32.8117 150.184 32.7871 150.065 32.7871C149.927 32.7871 149.79 32.8081 149.621 32.8341C149.569 32.842 149.514 32.8504 149.455 32.8588C149.361 32.8745 149.26 32.8558 149.152 32.8359C149.139 32.8336 149.127 32.8313 149.114 32.829C149.159 32.89 149.2 32.947 149.24 33.0022C148.899 32.9597 148.635 32.955 148.393 32.9507C148.228 32.9478 148.073 32.9451 147.913 32.9305C147.519 32.8588 147.196 32.8588 146.981 32.8588C146.793 32.8588 146.605 32.8861 146.393 32.9169L146.299 32.9305C146.138 32.9574 145.916 32.9843 145.694 33.0112C145.62 33.0202 145.546 33.0291 145.475 33.0381C145.33 32.797 145.121 32.5073 144.868 32.158C144.745 31.9879 144.612 31.8035 144.471 31.6038C144.222 31.231 143.95 30.8582 143.667 30.4716L143.667 30.4714C143.46 30.1888 143.248 29.8987 143.036 29.5959L143.036 29.5953C142.498 28.8783 141.961 28.1614 141.423 27.5162C140.885 26.8349 140.383 26.2612 139.953 25.795H139.738V26.9425C139.738 27.4086 139.738 27.9106 139.774 28.4126C139.791 28.6769 139.8 28.9411 139.809 29.2012V29.2018C139.818 29.4708 139.827 29.7351 139.845 29.9903C139.863 30.2547 139.872 30.5192 139.881 30.7793C139.89 31.0483 139.899 31.3128 139.917 31.568L139.93 31.7576C139.961 32.2171 139.989 32.6276 139.989 33.0381C139.688 32.978 139.438 32.9431 139.217 32.9123L139.092 32.8947C139.049 32.8885 139.007 32.8824 138.966 32.8764C138.77 32.8476 138.602 32.823 138.483 32.823C138.364 32.823 138.196 32.8476 137.999 32.8764L137.873 32.8947L137.748 32.9123C137.527 32.9431 137.277 32.978 136.977 33.0381C136.977 32.572 137.013 32.07 137.048 31.568C137.066 31.2996 137.075 31.0401 137.084 30.7807L137.084 30.7793C137.093 30.5193 137.102 30.2593 137.12 29.9903C137.12 29.7169 137.129 29.4436 137.138 29.175L137.139 29.1743L137.139 29.1732C137.147 28.9138 137.156 28.6589 137.156 28.4126C137.156 28.134 137.166 27.8747 137.175 27.6247C137.184 27.3919 137.192 27.1672 137.192 26.9425V23.1058H137.013C137.013 22.2618 136.983 21.3591 136.951 20.3709ZM163.916 22.7114C163.913 22.6875 163.909 22.6636 163.905 22.6397C163.886 22.6593 163.877 22.6681 163.879 22.6722C163.88 22.6755 163.889 22.6755 163.905 22.6755V22.7114H163.916ZM140.204 24.0022C140.039 24.0022 139.875 24.0022 139.738 23.9744V23.0699C139.738 22.3887 139.738 21.6715 139.774 20.9185C139.774 20.2014 139.809 19.4484 139.845 18.7671C140.06 18.7313 140.311 18.6954 140.562 18.6954H141.531C141.817 18.6954 142.14 18.7313 142.499 18.803C142.857 18.8388 143.18 18.9823 143.467 19.1616C143.754 19.3767 144.005 19.5918 144.184 19.9145C144.399 20.2373 144.471 20.6317 144.471 21.0978C144.471 21.6715 144.327 22.1377 144.112 22.4962C143.897 22.8548 143.574 23.1775 143.216 23.3926C142.821 23.6078 142.427 23.7871 141.997 23.8588C141.566 23.9305 141.136 24.0022 140.742 24.0022H140.204Z" fill="white"/>
</svg>
