<svg width="205" height="42" viewBox="0 0 205 42" fill="none" xmlns="http://www.w3.org/2000/svg">
<path fill-rule="evenodd" clip-rule="evenodd" d="M16.6734 0.0657959L33.3826 16.4882L16.7092 32.9464L9.00003 25.3806L12.8725 21.5439L16.6734 25.3089L25.6017 16.4882L16.6734 7.70327L3.87252 20.3248L0 16.4882L16.6734 0.0657959ZM16.6734 41.8388L0 25.3806L16.6734 8.9224L24.3467 16.4882L20.4742 20.3248L16.6734 16.5957L7.74504 25.3806L16.7092 34.1655L29.51 21.5439L33.3826 25.3806L16.6734 41.8388ZM85.0161 25.7392C84.0121 25.9543 83.0081 26.026 82.4703 26.0619C81.5739 26.0977 81.036 25.9543 80.7133 25.4165C80.3906 24.9145 80.3189 24.0539 80.3189 22.7272C80.3189 20.0738 80.6775 19.285 82.4703 19.3925C82.7201 19.4092 83.1013 19.4722 83.5242 19.5422L83.5243 19.5422C84.0121 19.6229 84.5552 19.7127 85.0161 19.7511L85.2671 18.2093C85.0999 18.1814 84.9232 18.1508 84.7415 18.1194L84.7414 18.1194C83.9881 17.989 83.1487 17.8437 82.542 17.8149C78.5261 17.6356 77.5221 19.3208 77.5221 22.7272C77.5221 26.1336 78.4902 27.8189 82.542 27.6396C83.3667 27.6037 84.4783 27.4603 85.3388 27.281L85.0161 25.7392ZM51.275 14.1933H51.8128C54.4304 14.3368 55.9722 15.52 55.9722 17.7431C55.9722 18.4603 55.8646 19.034 55.6495 19.5001C55.4344 19.9663 55.1117 20.3248 54.7172 20.5758C55.6495 21.042 56.4742 21.9025 56.4742 23.4802C56.4742 26.528 54.3587 27.4962 51.6336 27.4962H45.8965V14.2292H51.275V14.1933ZM51.4901 21.6157H48.5857V25.5958H51.6336L52.1356 25.5599C53.2471 25.4523 53.7491 24.9862 53.7491 23.4443C53.7491 21.6157 52.4224 21.6157 51.4901 21.6157ZM51.275 16.0579H48.5857V19.787H51.4901L51.9563 19.7511C52.9244 19.6435 53.283 19.034 53.283 17.7431C53.283 16.4164 52.8168 16.0579 51.275 16.0579ZM61.9244 17.8149C63.2511 17.8149 64.2193 18.1376 64.8647 18.6754C65.5101 19.2133 65.7969 20.038 65.7969 20.9702V27.3886L64.5778 27.532C63.3587 27.6396 62.0678 27.7472 60.7412 27.6037C58.5539 27.3886 57.1913 26.2412 57.1913 24.4842C57.1913 22.8706 58.1595 21.7232 60.6694 21.4364C61.6017 21.3288 62.7133 21.2929 63.036 21.2929H63.1077V20.9344V20.5758C63.036 19.8228 62.6774 19.5001 61.9244 19.5001C61.0095 19.5001 59.9219 19.7073 58.4583 19.9862L58.3746 20.0021L58.0878 18.3886C59.6655 18.03 60.777 17.8149 61.9244 17.8149ZM63.1436 22.8348L62.2471 22.8706C62.0244 22.8706 61.7734 22.8989 61.4942 22.9303L61.4942 22.9303L61.3866 22.9424C60.9204 23.0141 60.5619 23.1575 60.3467 23.3726C60.0957 23.6236 59.9882 23.9822 59.9882 24.4483C59.9882 25.1296 60.2033 25.775 61.2073 25.9543C61.8169 26.0619 62.4264 26.026 63.1794 25.9543V22.8348H63.1436ZM90.3946 17.8149H90.9325C93.6217 17.9941 95.1994 19.4643 95.1994 22.5838C95.1994 24.2332 94.9484 25.4882 94.2313 26.3487C93.5142 27.2093 92.295 27.6396 90.3946 27.6396C86.5938 27.6396 85.4823 26.0977 85.4823 22.5479C85.4823 19.2133 87.06 17.8149 90.3946 17.8149ZM90.3946 19.4284C89.6058 19.4284 89.0321 19.5718 88.7094 20.038C88.3867 20.5041 88.2432 21.2929 88.2432 22.5838C88.2432 25.3448 88.6018 26.0977 90.3946 26.0977C92.1516 26.0977 92.4743 25.2013 92.4743 22.6196V22.1894C92.3667 20.0738 91.5779 19.4284 90.3946 19.4284ZM108.753 14.1933V27.4244L107.713 27.532C106.781 27.6037 106.028 27.6396 105.239 27.6396C100.757 27.6396 99.8249 25.775 99.8249 22.5121C99.8249 19.6077 100.829 17.779 104.235 17.779C104.917 17.779 105.562 17.8149 106.064 17.8866V14.1933H108.753ZM104.235 19.3925L104.3 19.3866C104.8 19.3613 105.266 19.3971 105.67 19.4643L106.064 19.536V25.9902C106.064 25.9902 105.634 26.0619 104.845 26.026C102.873 25.9185 102.586 24.8786 102.586 22.5479C102.586 21.4364 102.658 20.7192 102.909 20.2172C103.16 19.7153 103.554 19.5001 104.235 19.3925ZM114.383 17.8149C117.466 17.8149 119.08 19.285 119.08 22.4045V23.4802H112.626L112.662 24.0898C112.805 25.4165 113.271 26.026 114.634 26.026C115.53 26.026 117.466 25.775 118.399 25.5599L118.686 27.1734L117.61 27.3886C116.57 27.5679 115.566 27.6396 114.598 27.6396C112.626 27.6396 111.407 27.1376 110.725 26.2412C110.044 25.3806 109.829 24.1256 109.829 22.6914C109.829 19.1057 111.514 17.8149 114.383 17.8149ZM114.454 19.4284C113.845 19.4284 113.415 19.5718 113.092 19.9663C112.805 20.3607 112.626 20.9702 112.59 21.9025H116.319L116.283 21.2571C116.14 19.8587 115.602 19.4284 114.454 19.4284ZM67.2312 27.4603H69.8487V19.6794C70.3507 19.536 71.1037 19.3925 71.785 19.3925C73.04 19.3925 73.5778 20.0021 73.6854 21.7232L73.7213 22.5479V27.4962H76.4105V22.5479C76.4105 21.0061 76.1237 19.8228 75.4065 19.034C74.6894 18.2451 73.542 17.8149 71.8209 17.8149C70.4225 17.8149 69.1316 18.0658 67.8049 18.5678L67.2312 18.783V27.4603ZM129.586 14.1216C133.53 14.1216 135.789 16.0579 135.789 20.6834V21.5081C135.646 25.5599 134.283 27.6754 129.586 27.6754C127.112 27.6754 125.534 27.1734 124.566 26.026C123.634 24.8786 123.275 23.1216 123.275 20.6475C123.275 15.9862 125.247 14.1216 129.586 14.1216ZM129.586 15.9862C127.004 15.9862 126 16.9184 126 20.6475C126 24.5918 126.574 25.8468 129.586 25.8468H130.124C132.598 25.6675 133.064 24.1615 133.064 20.7192C133.064 18.9623 132.742 17.779 132.132 17.026C131.522 16.273 130.662 15.9862 129.586 15.9862ZM166.985 27.4962V14.265H164.295V17.9941C163.793 17.9224 163.148 17.8866 162.467 17.8866C159.06 17.8866 158.056 19.7153 158.056 22.6196C158.056 25.8826 158.989 27.7472 163.471 27.7472C163.916 27.7472 164.362 27.7189 164.857 27.6875C164.92 27.6835 164.984 27.6795 165.048 27.6754L166.985 27.4962ZM161.14 20.289C161.391 19.787 161.785 19.5718 162.467 19.4643C162.551 19.4643 162.635 19.452 162.704 19.4418C162.754 19.4346 162.796 19.4284 162.825 19.4284C163.22 19.3925 163.578 19.4284 163.901 19.5001L164.295 19.5718V26.026C164.242 26.026 164.179 26.035 164.116 26.044C164.053 26.0529 163.991 26.0619 163.937 26.0619C163.793 26.0977 163.65 26.0977 163.542 26.0977H163.148H163.076C161.104 25.9902 160.817 24.9503 160.817 22.6196C160.817 21.5081 160.889 20.791 161.14 20.289ZM154.076 16.6316H156.73V14.6236H154.076V16.6316ZM154.076 27.532H156.73V18.0659H154.076V27.532ZM178.782 27.532H181.399H181.435V19.7153C181.901 19.5718 182.654 19.4284 183.371 19.4284C184.59 19.4284 185.164 20.038 185.272 21.7591L185.307 22.5838V27.532H187.997V22.5838C187.997 21.042 187.71 19.8587 186.993 19.0698C186.24 18.281 185.092 17.8507 183.371 17.8507C181.937 17.8507 180.682 18.1376 179.355 18.6037L178.782 18.8188V27.532ZM190.184 18.1017V15.8427H192.909V18.1017H195.025V19.7153H192.909V24.4125L192.945 25.0938C193.017 25.6675 193.124 25.9185 193.483 25.9543C193.761 25.9852 194.039 25.9629 194.409 25.9332C194.468 25.9284 194.53 25.9234 194.594 25.9185C194.666 25.9185 194.738 25.9095 194.809 25.9005C194.881 25.8916 194.953 25.8826 195.025 25.8826L195.347 27.4603L194.702 27.5679C193.877 27.7113 193.268 27.7113 192.945 27.7113C190.578 27.7113 190.184 26.6356 190.184 24.4125V19.7153H188.535V18.1017H190.184ZM172.829 17.8866C175.913 17.8866 177.527 19.3567 177.527 22.4762V23.5878H171.108L171.144 24.1973C171.287 25.524 171.754 26.1336 173.116 26.1336C174.013 26.1336 175.913 25.8826 176.881 25.6675L177.168 27.281L176.092 27.4962C175.052 27.6396 174.048 27.7472 173.08 27.7472C171.108 27.7472 169.889 27.2093 169.208 26.3487C168.527 25.4523 168.311 24.2332 168.311 22.7989C168.311 19.1774 169.961 17.8866 172.829 17.8866ZM172.937 19.4643C172.291 19.4643 171.861 19.6077 171.574 20.0021C171.287 20.3965 171.144 21.0061 171.108 21.9384H174.837L174.801 21.293C174.622 19.8945 174.084 19.4643 172.937 19.4643ZM204.921 22.4762C204.921 19.3567 203.307 17.8866 200.224 17.8866C197.355 17.8866 195.706 19.1774 195.67 22.7631C195.67 24.1973 195.885 25.4523 196.566 26.3129C197.248 27.2093 198.467 27.7113 200.439 27.7113C201.407 27.7113 202.411 27.6396 203.451 27.4603L204.527 27.2452L204.24 25.6316C203.307 25.8468 201.371 26.0977 200.475 26.0977C199.148 26.0977 198.682 25.4882 198.539 24.1615L198.503 23.5519H204.921V22.4762ZM198.969 20.038C199.292 19.6435 199.722 19.5001 200.331 19.5001C201.479 19.5001 202.017 19.9304 202.196 21.3288L202.232 21.9742H198.503C198.539 21.042 198.682 20.4324 198.969 20.038ZM152.534 25.8109C151.53 26.026 150.526 26.0977 149.989 26.1336C149.092 26.1695 148.554 26.026 148.196 25.524C147.873 25.022 147.801 24.1615 147.801 22.8348C147.801 20.1814 148.16 19.4284 149.953 19.5001C150.114 19.5203 150.32 19.5517 150.559 19.5881C150.745 19.6165 150.952 19.648 151.172 19.6794C151.638 19.7511 152.104 19.8228 152.534 19.8587L152.785 18.3168L152.606 18.281L152.488 18.2605C151.687 18.121 150.744 17.9566 150.06 17.9224C146.009 17.7431 145.04 19.4284 145.04 22.8348C145.04 26.2412 146.044 27.8906 150.06 27.7472C150.885 27.7113 151.997 27.5679 152.857 27.3886L152.534 25.8109ZM141.777 26.1336C142.315 26.0977 143.319 26.026 144.323 25.8109L144.646 27.3527C143.785 27.532 142.674 27.6754 141.849 27.7113C137.833 27.8906 136.829 26.2053 136.829 22.7989C136.829 19.3925 137.833 17.7073 141.849 17.8866C142.566 17.9224 143.606 18.1017 144.431 18.2451L144.574 18.281L144.323 19.8228C143.929 19.787 143.427 19.7153 142.997 19.6435C142.53 19.536 142.064 19.4643 141.777 19.4643C139.949 19.3567 139.626 20.1455 139.626 22.7989C139.626 24.1256 139.698 24.9862 140.02 25.4882C140.343 26.026 140.881 26.1695 141.777 26.1336Z" fill="white"/>
</svg>
