<svg width="97" height="52" viewBox="0 0 97 52" fill="none" xmlns="http://www.w3.org/2000/svg">
<path fill-rule="evenodd" clip-rule="evenodd" d="M2.53957 14.0576C3.60476 14.0576 4.66996 15.1229 4.66996 16.1881V20.4487C4.66996 21.5139 3.60476 22.5792 2.53957 22.5792C1.47437 22.5792 0.40918 21.5139 0.40918 20.4487V16.1881C0.40918 15.1229 1.47437 14.0576 2.53957 14.0576ZM14.2567 8.37662C15.3219 8.37662 16.3871 9.44173 16.3871 10.5069V20.8039C16.3871 21.8691 15.3219 22.9342 14.2567 22.9342C13.1915 22.9342 12.1264 21.8691 12.1264 20.8039V10.5069C12.1264 9.44173 13.1915 8.37662 14.2567 8.37662ZM25.6188 0.565138C26.684 0.565138 27.7492 1.63025 27.7492 2.69544V25.0647C27.7492 26.1299 26.684 27.1951 25.6188 27.1951C24.5536 27.1951 23.4884 26.1299 23.4884 25.0647V2.69544C23.4884 1.63025 24.5536 0.565138 25.6188 0.565138ZM37.336 8.37662C38.4012 8.37662 39.4664 9.44173 39.4664 10.5069V20.8039C39.4664 21.8691 38.4012 22.9342 37.336 22.9342C36.2708 22.9342 35.2056 21.8691 35.2056 20.8039V10.5069C35.2056 9.44173 36.2708 8.37662 37.336 8.37662ZM48.6981 14.0576C49.7633 14.0576 50.8285 15.1229 50.8285 16.1881V20.4487C50.8285 21.5139 49.7633 22.5792 48.6981 22.5792C47.6329 22.5792 46.5677 21.5139 46.5677 20.4487V16.1881C46.5677 15.1229 47.6329 14.0576 48.6981 14.0576ZM60.4153 8.37662C61.4805 8.37662 62.5456 9.44173 62.5456 10.5069V20.8039C62.5456 21.8691 61.4805 22.9342 60.4153 22.9342C59.3501 22.9342 58.2849 21.8691 58.2849 20.8039V10.5069C58.2849 9.44173 59.3501 8.37662 60.4153 8.37662ZM71.7773 0.565138C72.8425 0.565138 73.9077 1.63025 73.9077 2.69544V25.0647C73.9077 26.485 72.8425 27.1951 71.7773 27.1951C70.3571 27.1951 69.647 26.1299 69.647 25.0647V2.69544C69.647 1.63025 70.7122 0.565138 71.7773 0.565138ZM83.4945 8.37662C84.5597 8.37662 85.6249 9.44173 85.6249 10.5069V20.8039C85.6249 21.8691 84.5597 22.9342 83.4945 22.9342C82.4293 22.9342 81.3641 21.8691 81.3641 20.8039V10.5069C81.3641 9.44173 82.4293 8.37662 83.4945 8.37662ZM94.8566 14.0576C95.9218 14.0576 96.987 15.1229 96.987 16.1881V20.4487C96.987 21.5139 95.9218 22.5792 94.8566 22.5792C93.7914 22.5792 92.7262 21.5139 92.7262 20.4487V16.1881C92.7262 15.1229 93.7914 14.0576 94.8566 14.0576ZM66.0961 38.9122C66.0961 38.9122 64.6759 37.847 62.5455 37.847C59.705 37.847 57.9296 39.6223 57.9296 42.4629C57.9296 44.9483 59.705 47.0787 62.5455 47.0787C64.6759 47.0787 66.0961 46.3686 66.0961 46.0135V50.6293C65.9864 50.6293 65.7411 50.6971 65.402 50.7909C64.6439 51.0004 63.4171 51.3395 62.1904 51.3395C57.5746 51.3395 53.3138 48.144 53.3138 42.8181C53.3138 37.8471 57.2195 34.2964 62.1904 34.2964C64.3208 34.2964 65.7411 34.6515 66.0961 35.0066V38.9122ZM22.068 38.9122C22.068 38.9122 20.6477 37.847 18.5173 37.847C15.6768 37.847 13.9015 39.6223 13.9015 42.4629C13.9015 44.9483 15.6768 47.0787 18.5173 47.0787C20.6477 47.0787 22.068 46.3686 22.068 46.0135V50.6293C21.9583 50.6293 21.7129 50.6971 21.3739 50.7909C20.6157 51.0004 19.389 51.3395 18.1623 51.3395C13.5464 51.3395 9.28564 48.144 9.28564 42.8181C9.28564 37.8471 13.1914 34.2964 18.1623 34.2964C20.2927 34.2964 21.7129 34.6515 22.068 35.0066V38.9122ZM79.5886 38.202C77.1032 38.202 75.3278 40.3325 75.3278 42.4629C75.3278 44.9483 77.1032 46.7237 79.5886 46.7237C82.0741 46.7237 83.8494 44.5932 83.8494 42.4629C83.8494 40.3325 82.0741 38.202 79.5886 38.202ZM88.4653 42.4629C88.4653 47.0787 84.9146 50.9845 79.5886 50.9845C74.2626 50.9845 70.712 47.0787 70.712 42.4629C70.712 37.847 74.2626 33.9414 79.5886 33.9414C84.9146 33.9414 88.4653 37.847 88.4653 42.4629ZM47.9878 38.202C47.9878 38.202 46.2125 37.847 44.7922 37.847C43.0169 37.847 42.3068 38.5573 42.3068 39.2674C42.3068 40.3326 43.3719 40.6875 44.0821 40.6875L45.1473 41.0427C47.9878 41.7529 49.053 43.8832 49.053 45.6585C49.053 49.9193 45.5023 51.3395 41.9517 51.3395C40.4389 51.3395 38.9261 51.1605 38.049 51.0567L38.049 51.0567L38.0489 51.0567C37.6909 51.0143 37.4388 50.9845 37.3358 50.9845V47.0787C37.4455 47.0787 37.6909 47.1465 38.0299 47.2402C38.7881 47.4498 40.0148 47.7888 41.2415 47.7888C43.3719 47.7888 44.4371 47.0788 44.4371 46.3687C44.4371 45.6586 43.727 44.9484 42.6618 44.5934C42.4843 44.5934 42.3067 44.5046 42.1292 44.4158C41.9517 44.327 41.7741 44.2382 41.5966 44.2382C39.1111 43.528 37.3358 42.1079 37.3358 39.2674C37.3358 36.0718 39.8213 33.9414 43.727 33.9414C45.2398 33.9414 46.5735 34.1204 47.3468 34.2242L47.3469 34.2242L47.3469 34.2242C47.6626 34.2666 47.8849 34.2964 47.9878 34.2964V38.202ZM32.0173 51.0052H27.7925V34.2433H32.0173V51.0052Z" fill="white"/>
</svg>
