<svg width="105" height="52" viewBox="0 0 105 52" fill="none" xmlns="http://www.w3.org/2000/svg">
<path fill-rule="evenodd" clip-rule="evenodd" d="M48.9258 13.3853V17.0089H56.3736V24.658H48.9258V50.0212H39.9351V24.658H34.4331V17.0089H39.9351V13.2511C39.9351 5.80294 44.6313 0.972168 51.9457 0.972168C53.8244 0.972168 55.6357 1.30758 56.3736 1.643V9.15825C55.9044 9.0237 55.0323 8.82283 53.5557 8.82283C51.5428 8.82283 48.9258 9.69492 48.9258 13.3853ZM21.6725 46.4649C19.8609 49.5515 16.0368 50.8932 12.5473 50.8932C4.56243 50.8932 0 45.0558 0 37.8763V17.0088H8.924V36.0647C8.924 39.755 10.8031 42.7075 14.963 42.7075C18.9217 42.7075 21.2029 40.0234 21.2029 36.1988V17.0088H30.1273V44.0491C30.1273 46.5991 30.3282 48.8803 30.4624 50.0211H21.9416C21.8071 49.3499 21.6725 47.8066 21.6725 46.4649ZM76.2356 50.0206C85.2894 50.0206 92.1841 43.4227 92.5376 34.2568C99.6943 32.1695 104.527 29.287 104.113 27.0131C104.039 26.6053 103.8 26.2388 103.415 25.9149C100.815 24.9947 96.151 24.7575 90.5651 25.2855C87.8445 20.2073 82.5682 17.0083 76.2356 17.0083C66.939 17.0083 59.9194 23.9022 59.9194 33.515C59.9194 43.0646 66.939 50.0206 76.2356 50.0206Z" fill="white"/>
<path d="M101.356 47.4194C101.356 49.4123 99.7404 51.0277 97.7475 51.0277C95.7549 51.0277 94.1392 49.4123 94.1392 47.4194C94.1392 45.4264 95.7549 43.811 97.7475 43.811C99.7404 43.811 101.356 45.4264 101.356 47.4194Z" fill="url(#paint0_radial_306_4889)"/>
<path fill-rule="evenodd" clip-rule="evenodd" d="M89.7667 24.3846C87.9763 22.5421 85.0885 21.5893 82.0531 22.0978C78.7795 22.646 76.2222 24.746 75.2741 27.3307C70.2879 28.9617 66.7001 30.9631 65.686 32.7697C68.5852 30.3301 75.5803 27.7269 83.9799 26.2012C92.3795 24.6752 99.8433 24.6514 103.415 25.9153C101.562 24.3547 96.3198 23.7827 89.7667 24.3846Z" fill="#020722"/>
<defs>
<radialGradient id="paint0_radial_306_4889" cx="0" cy="0" r="1" gradientUnits="userSpaceOnUse" gradientTransform="translate(94.1392 43.811) rotate(44.3563) scale(10.3225)">
<stop stop-color="#0B42FB"/>
<stop offset="1" stop-color="#7C33FB"/>
</radialGradient>
</defs>
</svg>
